<svg width="63" height="61" viewBox="0 0 63 61" fill="none" xmlns="http://www.w3.org/2000/svg">
<path d="M39.8828 15.4885H23.2228C19.4734 15.4885 16.4181 18.5232 16.4181 22.2576V38.7423C16.4181 42.472 19.4688 45.5113 23.2228 45.5113H39.8828C43.6321 45.5113 46.6874 42.4766 46.6874 38.7423V22.2576C46.6874 18.5279 43.6367 15.4885 39.8828 15.4885ZM31.597 40.3917H31.5085C26.1011 40.3917 21.6532 35.967 21.6532 30.4999C21.6532 25.0328 26.1011 20.6082 31.5085 20.6082H31.597C37.0044 20.6082 41.5408 25.1208 41.5408 30.4999C41.5408 35.879 37.0044 40.3917 31.597 40.3917ZM41.3685 22.8645C40.1482 22.8645 39.2773 21.9101 39.2773 20.7842C39.2773 19.6584 40.1482 18.7039 41.3685 18.7039C42.5003 18.7039 43.4597 19.6584 43.4597 20.7842C43.4597 21.9101 42.5003 22.8645 41.3685 22.8645Z" fill="white"/>
<path d="M31.597 23.9951H31.5085C27.9315 23.9951 24.9647 26.9464 24.9647 30.5047C24.9647 34.0629 27.9315 37.0977 31.5085 37.0977H31.597C35.174 37.0977 38.1408 34.1463 38.1408 30.5047C38.1408 26.863 35.174 23.9951 31.597 23.9951Z" fill="white"/>
<path d="M31.5551 0C14.6203 0 0.894531 13.6539 0.894531 30.5C0.894531 47.3461 14.6203 61 31.5551 61C48.4899 61 62.2156 47.3461 62.2156 30.5C62.2156 13.6539 48.4899 0 31.5551 0ZM49.8266 38.8304C49.8266 44.2095 45.3786 48.6341 39.9712 48.6341H23.1343C17.7269 48.6341 13.2789 44.2095 13.2789 38.8304V22.1696C13.2789 16.7905 17.7269 12.3659 23.1343 12.3659H39.9712C45.3786 12.3659 49.8266 16.7905 49.8266 22.1696V38.8304Z" fill="white"/>
</svg>
