<svg width="148" height="50" viewBox="0 0 148 50" fill="none" xmlns="http://www.w3.org/2000/svg">
<g clip-path="url(#clip0_18_47)">
<path d="M17.5998 18.393L22.971 23.9174C21.5969 25.3307 19.6975 26.2057 17.5998 26.2057C13.4046 26.2057 10.0039 22.7079 10.0039 18.393C10.0039 14.078 13.4046 10.5803 17.5998 10.5803C19.1759 10.5803 20.6397 11.0745 21.853 11.9186L28.9778 4.5905C25.9099 1.91192 21.939 0.292847 17.5998 0.292847C7.88011 0.292847 0 8.39781 0 18.393C0 28.3881 7.88011 36.4931 17.5998 36.4931C27.3196 36.4931 35.1978 28.3881 35.1978 18.393H17.5998Z" fill="url(#paint0_linear_18_47)"/>
<path d="M60.6946 15.8125C60.2197 12.3994 58.8232 9.29198 56.7667 6.77108L56.7629 6.77492C53.538 2.82339 48.7015 0.310181 43.2929 0.310181C38.5237 0.310181 34.2855 2.25999 31.1241 5.43083L30.7577 5.80771C26.5082 10.265 20.7108 16.2394 20.7108 16.2394H35.9905C36.901 12.9724 39.823 10.5822 43.291 10.5822C45.9458 10.5822 48.279 11.9821 49.6381 14.103L49.6344 14.1069C49.9728 14.6357 50.2495 15.2068 50.4551 15.8144C50.7299 16.622 50.887 17.4912 50.887 18.3969C50.887 22.7118 47.4863 26.2095 43.291 26.2095C40.5877 26.2095 38.2171 24.7539 36.871 22.5657C36.1176 26.2518 34.3883 29.5707 31.9747 32.2243C35.0333 34.876 38.978 36.4797 43.291 36.4797C53.0014 36.4797 60.8741 28.3824 60.8741 18.3949C60.8741 17.5181 60.8105 16.6566 60.6927 15.8144L60.6946 15.8125Z" fill="url(#paint1_linear_18_47)"/>
<path d="M39.2322 24.9923C38.2825 24.3712 37.4749 23.5405 36.8729 22.5637C36.1195 26.2499 34.3901 29.5688 31.9766 32.2224C33.203 33.2857 34.5752 34.178 36.054 34.8683C37.9572 32.0474 39.1145 28.6554 39.2322 24.9923Z" fill="url(#paint2_linear_18_47)"/>
<path d="M77.8289 31.8281L73.1195 22.854H70.648V31.8281H63.7363V4.03088H74.546C77.2998 4.03088 79.6106 4.93849 81.4764 6.75177C83.3422 8.56505 84.2751 10.861 84.2751 13.6415C84.2751 15.3086 83.8638 16.8373 83.0393 18.2276C82.2149 19.6178 81.095 20.7235 79.6798 21.5426L85.2398 31.8281H77.827H77.8289ZM70.648 10.5822V16.8162H74.4693C75.3181 16.8431 76.0136 16.5643 76.5539 15.9816C77.0942 15.399 77.3653 14.6452 77.3653 13.7184C77.3653 12.7916 77.0942 12.0378 76.5539 11.4551C76.0136 10.8725 75.3181 10.5822 74.4693 10.5822H70.648Z" fill="white"/>
<path d="M108.542 28.2343C105.801 31.0282 102.447 32.4242 98.4836 32.4242C94.5202 32.4242 91.1681 31.0282 88.4255 28.2343C85.6847 25.4422 84.3143 22.0061 84.3143 17.9295C84.3143 13.853 85.6847 10.4187 88.4255 7.62478C91.1662 4.83275 94.5183 3.43481 98.4836 3.43481C102.449 3.43481 105.799 4.83083 108.542 7.62478C111.282 10.4187 112.653 13.853 112.653 17.9295C112.653 22.0061 111.282 25.4422 108.542 28.2343ZM93.2732 23.3501C94.6622 24.7673 96.4009 25.4749 98.4854 25.4749C100.57 25.4749 102.307 24.7673 103.698 23.3501C105.087 21.9349 105.782 20.1274 105.782 17.9295C105.782 15.7317 105.087 13.9261 103.698 12.5089C102.309 11.0937 100.57 10.3841 98.4854 10.3841C96.4009 10.3841 94.6622 11.0937 93.2732 12.5089C91.8841 13.9261 91.1886 15.7317 91.1886 17.9295C91.1886 20.1274 91.8841 21.9349 93.2732 23.3501Z" fill="white"/>
<path d="M120.84 24.9577H130.144V31.8281H113.928V4.03088H120.84V24.9577Z" fill="white"/>
<path d="M137.634 24.9577H146.938V31.8281H130.722V4.03088H137.634V24.9577Z" fill="white"/>
</g>
<path d="M142.808 49.238C141.988 49.238 141.193 49.1216 140.423 48.8887C139.664 48.6558 139.062 48.3469 138.616 47.9622L139.3 46.4281C139.735 46.7724 140.267 47.0559 140.894 47.2787C141.532 47.4913 142.17 47.5976 142.808 47.5976C143.598 47.5976 144.185 47.4711 144.57 47.2179C144.965 46.9648 145.162 46.6306 145.162 46.2155C145.162 45.9117 145.051 45.6636 144.828 45.4712C144.616 45.2687 144.342 45.1118 144.008 45.0004C143.674 44.889 143.218 44.7624 142.641 44.6207C141.831 44.4283 141.173 44.2359 140.666 44.0435C140.17 43.8511 139.74 43.5524 139.375 43.1474C139.021 42.7322 138.844 42.1753 138.844 41.4767C138.844 40.8894 139.001 40.3578 139.315 39.8819C139.639 39.3958 140.12 39.011 140.758 38.7275C141.406 38.444 142.195 38.3022 143.127 38.3022C143.775 38.3022 144.413 38.3833 145.041 38.5453C145.669 38.7073 146.21 38.9402 146.666 39.2439L146.043 40.778C145.577 40.5046 145.091 40.297 144.585 40.1553C144.079 40.0135 143.588 39.9426 143.112 39.9426C142.332 39.9426 141.75 40.0742 141.365 40.3375C140.991 40.6008 140.803 40.9501 140.803 41.3855C140.803 41.6893 140.909 41.9374 141.122 42.1298C141.345 42.3222 141.623 42.474 141.958 42.5854C142.292 42.6968 142.747 42.8234 143.324 42.9651C144.114 43.1474 144.762 43.3398 145.269 43.5423C145.775 43.7347 146.205 44.0334 146.56 44.4384C146.924 44.8435 147.106 45.3902 147.106 46.0788C147.106 46.6661 146.944 47.1977 146.62 47.6736C146.306 48.1495 145.826 48.5292 145.177 48.8127C144.529 49.0962 143.74 49.238 142.808 49.238Z" fill="white"/>
<path d="M135.309 49.0861L133.137 45.9724C133.046 45.9826 132.909 45.9876 132.727 45.9876H130.327V49.0861H128.352V38.4541H132.727C133.648 38.4541 134.448 38.606 135.127 38.9098C135.815 39.2135 136.342 39.6489 136.706 40.216C137.071 40.783 137.253 41.4564 137.253 42.2361C137.253 43.036 137.055 43.7245 136.661 44.3017C136.276 44.8789 135.719 45.3092 134.99 45.5927L137.435 49.0861H135.309ZM135.263 42.2361C135.263 41.5576 135.04 41.0362 134.595 40.6716C134.149 40.3071 133.496 40.1248 132.636 40.1248H130.327V44.3625H132.636C133.496 44.3625 134.149 44.1802 134.595 43.8157C135.04 43.441 135.263 42.9145 135.263 42.2361Z" fill="white"/>
<path d="M126.101 47.4305V49.0861H118.127V38.4541H125.888V40.1097H120.102V42.874H125.235V44.4991H120.102V47.4305H126.101Z" fill="white"/>
<path d="M115.228 38.4541V49.0861H113.603L107.74 41.8867V49.0861H105.781V38.4541H107.406L113.269 45.6535V38.4541H115.228Z" fill="white"/>
<path d="M98.7504 40.1248H95.2267V38.4541H104.249V40.1248H100.725V49.0861H98.7504V40.1248Z" fill="white"/>
<path d="M92.5385 49.0861L90.3666 45.9724C90.2754 45.9826 90.1387 45.9876 89.9565 45.9876H87.5567V49.0861H85.5822V38.4541H89.9565C90.8779 38.4541 91.6778 38.606 92.3563 38.9098C93.0448 39.2135 93.5713 39.6489 93.9359 40.216C94.3004 40.783 94.4826 41.4564 94.4826 42.2361C94.4826 43.036 94.2852 43.7245 93.8903 44.3017C93.5055 44.8789 92.9486 45.3092 92.2196 45.5927L94.6649 49.0861H92.5385ZM92.4929 42.2361C92.4929 41.5576 92.2702 41.0362 91.8247 40.6716C91.3791 40.3071 90.726 40.1248 89.8653 40.1248H87.5567V44.3625H89.8653C90.726 44.3625 91.3791 44.1802 91.8247 43.8157C92.2702 43.441 92.4929 42.9145 92.4929 42.2361Z" fill="white"/>
<path d="M81.051 46.6255H75.735L74.687 49.0861H72.6517L77.4361 38.4541H79.3803L84.1798 49.0861H82.1142L81.051 46.6255ZM80.3979 45.0763L78.393 40.4286L76.4033 45.0763H80.3979Z" fill="white"/>
<path d="M68.1413 38.4543C69.0627 38.4543 69.8626 38.6062 70.5411 38.91C71.2296 39.2138 71.7561 39.6492 72.1207 40.2162C72.4852 40.7833 72.6675 41.4566 72.6675 42.2363C72.6675 43.0058 72.4852 43.6792 72.1207 44.2564C71.7561 44.8234 71.2296 45.2588 70.5411 45.5626C69.8626 45.8664 69.0627 46.0182 68.1413 46.0182H65.7415V49.0863H63.767V38.4543H68.1413ZM68.0501 44.3475C68.9108 44.3475 69.5639 44.1652 70.0095 43.8007C70.455 43.4362 70.6778 42.9147 70.6778 42.2363C70.6778 41.5579 70.455 41.0364 70.0095 40.6719C69.5639 40.3073 68.9108 40.1251 68.0501 40.1251H65.7415V44.3475H68.0501Z" fill="white"/>
<defs>
<linearGradient id="paint0_linear_18_47" x1="29.9968" y1="5.64232" x2="4.45555" y2="30.4749" gradientUnits="userSpaceOnUse">
<stop stop-color="#FC5C39"/>
<stop offset="1" stop-color="#DE0505"/>
</linearGradient>
<linearGradient id="paint1_linear_18_47" x1="58.8699" y1="2.42151" x2="38.3358" y2="22.3859" gradientUnits="userSpaceOnUse">
<stop stop-color="#FFDA00"/>
<stop offset="0.19" stop-color="#FFCC00"/>
<stop offset="0.5" stop-color="#FFAE00"/>
<stop offset="1" stop-color="#FF2200"/>
</linearGradient>
<linearGradient id="paint2_linear_18_47" x1="39.6585" y1="25.4288" x2="32.3141" y2="32.5695" gradientUnits="userSpaceOnUse">
<stop stop-color="#FFDA00"/>
<stop offset="0.19" stop-color="#FFCC00"/>
<stop offset="0.5" stop-color="#FFAE00"/>
<stop offset="1" stop-color="#FF2200"/>
</linearGradient>
<clipPath id="clip0_18_47">
<rect width="146.938" height="36.2022" fill="white" transform="translate(0 0.292847)"/>
</clipPath>
</defs>
</svg>
