<svg width="69" height="58" viewBox="0 0 69 58" fill="none" xmlns="http://www.w3.org/2000/svg">
<circle cx="51" cy="18" r="18" fill="url(#paint0_linear_2043_61)"/>
<g clip-path="url(#clip0_2043_61)">
<path fill-rule="evenodd" clip-rule="evenodd" d="M40.368 7.87384C40.7126 6.93401 40.2301 5.89277 39.2903 5.54817C38.3505 5.20356 37.3092 5.68609 36.9646 6.62592L36.3792 8.2224C36.0249 9.18882 35.105 9.83132 34.0756 9.83132C31.199 9.83132 28.7162 11.8478 28.1262 14.6634L27.29 18.6544C27.1486 18.6305 27.0075 18.6037 26.8669 18.5738C25.8563 18.3593 24.8532 17.9235 22.3753 16.8223L21.0921 16.252C19.3892 15.4951 17.5464 15.104 15.6829 15.104C7.57792 15.104 1.352 22.2826 2.49822 30.3061L3.05622 34.2121L6.57555 46.5298C7.59577 50.1005 10.8595 52.5624 14.5732 52.5624C17.4034 52.5624 20.0393 51.1233 21.5698 48.7426L22.4745 47.3352C25.528 42.5853 32.4713 42.5853 35.5248 47.3352L36.0782 48.1961C37.8276 50.9174 40.8407 52.5624 44.0758 52.5624C48.8072 52.5624 52.8186 49.0833 53.4878 44.3994L55.5011 30.3061C56.6473 22.2826 50.4214 15.104 42.3164 15.104C40.4529 15.104 38.6101 15.4951 36.9072 16.252L35.624 16.8223C33.1462 17.9235 32.143 18.3593 31.1325 18.5738C31.0901 18.5828 31.0476 18.5916 31.0051 18.6L31.6742 15.4067C31.9123 14.2703 32.9145 13.4563 34.0756 13.4563C36.6258 13.4563 38.9048 11.8646 39.7827 9.47032L40.368 7.87384Z" fill="#00FF66" fill-opacity="0.49" stroke="url(#paint1_linear_2043_61)"/>
<g filter="url(#filter0_d_2043_61)">
<path fill-rule="evenodd" clip-rule="evenodd" d="M43.4998 26.5832C43.4998 27.9179 42.4178 28.9998 41.0831 28.9998C39.7484 28.9998 38.6664 27.9179 38.6664 26.5832C38.6664 25.2485 39.7484 24.1665 41.0831 24.1665C42.4178 24.1665 43.4998 25.2485 43.4998 26.5832ZM38.6664 31.4165C38.6664 32.7512 37.5845 33.8332 36.2498 33.8332C34.9151 33.8332 33.8331 32.7512 33.8331 31.4165C33.8331 30.0818 34.9151 28.9998 36.2498 28.9998C37.5845 28.9998 38.6664 30.0818 38.6664 31.4165ZM45.9164 33.8332C47.2511 33.8332 48.3331 32.7512 48.3331 31.4165C48.3331 30.0818 47.2511 28.9998 45.9164 28.9998C44.5818 28.9998 43.4998 30.0818 43.4998 31.4165C43.4998 32.7512 44.5818 33.8332 45.9164 33.8332ZM43.4998 36.2498C43.4998 37.5845 42.4178 38.6665 41.0831 38.6665C39.7484 38.6665 38.6664 37.5845 38.6664 36.2498C38.6664 34.9151 39.7484 33.8332 41.0831 33.8332C42.4178 33.8332 43.4998 34.9151 43.4998 36.2498ZM18.7288 26.5832C18.7288 25.5822 17.9173 24.7707 16.9163 24.7707C15.9153 24.7707 15.1038 25.5822 15.1038 26.5832V29.604H12.083C11.0819 29.604 10.2705 30.4155 10.2705 31.4165C10.2705 32.4175 11.0819 33.229 12.083 33.229H15.1038V36.2498C15.1038 37.2508 15.9153 38.0623 16.9163 38.0623C17.9173 38.0623 18.7288 37.2508 18.7288 36.2498V33.229H21.7496C22.7506 33.229 23.5621 32.4175 23.5621 31.4165C23.5621 30.4155 22.7506 29.604 21.7496 29.604H18.7288V26.5832Z" fill="url(#paint2_linear_2043_61)"/>
</g>
</g>
<defs>
<filter id="filter0_d_2043_61" x="7.27045" y="21.1665" width="54.0627" height="30.5" filterUnits="userSpaceOnUse" color-interpolation-filters="sRGB">
<feFlood flood-opacity="0" result="BackgroundImageFix"/>
<feColorMatrix in="SourceAlpha" type="matrix" values="0 0 0 0 0 0 0 0 0 0 0 0 0 0 0 0 0 0 127 0" result="hardAlpha"/>
<feOffset dx="5" dy="5"/>
<feGaussianBlur stdDeviation="4"/>
<feColorMatrix type="matrix" values="0 0 0 0 0.176471 0 0 0 0 0.556863 0 0 0 0 0.678431 0 0 0 0.5 0"/>
<feBlend mode="normal" in2="BackgroundImageFix" result="effect1_dropShadow_2043_61"/>
<feBlend mode="normal" in="SourceGraphic" in2="effect1_dropShadow_2043_61" result="shape"/>
</filter>
<linearGradient id="paint0_linear_2043_61" x1="33" y1="36" x2="69.7671" y2="0.80127" gradientUnits="userSpaceOnUse">
<stop stop-color="#24FF00"/>
<stop offset="1" stop-color="#1CCB00"/>
</linearGradient>
<linearGradient id="paint1_linear_2043_61" x1="2.36186" y1="5.43689" x2="49.1645" y2="58.2939" gradientUnits="userSpaceOnUse">
<stop stop-color="white" stop-opacity="0.25"/>
<stop offset="1" stop-color="white" stop-opacity="0"/>
</linearGradient>
<linearGradient id="paint2_linear_2043_61" x1="29.6223" y1="41.7556" x2="43.1387" y2="6.97588" gradientUnits="userSpaceOnUse">
<stop stop-color="white"/>
<stop offset="1" stop-color="white" stop-opacity="0.2"/>
</linearGradient>
<clipPath id="clip0_2043_61">
<rect width="58" height="58" fill="white"/>
</clipPath>
</defs>
</svg>
