<svg width="62" height="61" viewBox="0 0 62 61" fill="none" xmlns="http://www.w3.org/2000/svg">
<path d="M61.3211 30.5C61.3211 13.6539 47.5953 0 30.6605 0C13.7257 0 0 13.6539 0 30.5C0 47.3461 13.7257 61 30.6605 61C47.5953 61 61.3211 47.3461 61.3211 30.5ZM43.8041 25.385C42.9145 31.4498 41.8992 37.51 40.8838 43.5747C40.5019 46.4797 38.9789 47.9948 35.8025 46.2295L25.9005 39.2844C24.5033 38.1493 24.8852 37.2644 26.0263 36.1246L35.169 27.5348C37.5816 25.1348 36.4405 24.2499 33.646 26.1448L21.0753 34.6096C19.2962 35.8744 17.3912 35.8744 15.3605 35.2397L11.043 33.7247C8.24848 32.7146 10.4096 31.5795 11.8068 30.9448C19.6781 27.6599 29.2027 22.985 37.4559 19.8299C45.0756 17.05 44.9499 17.8098 43.8041 25.3896V25.385Z" fill="white"/>
</svg>
