<svg width="41" height="41" viewBox="0 0 41 41" fill="none" xmlns="http://www.w3.org/2000/svg">
<path fill-rule="evenodd" clip-rule="evenodd" d="M20.9458 18.8115C22.0504 18.8115 22.9458 17.9161 22.9458 16.8115C22.9458 15.707 22.0504 14.8115 20.9458 14.8115C19.8412 14.8115 18.9458 15.707 18.9458 16.8115C18.9458 17.9161 19.8412 18.8115 20.9458 18.8115ZM20.9458 20.8115C23.1549 20.8115 24.9458 19.0207 24.9458 16.8115C24.9458 14.6024 23.1549 12.8115 20.9458 12.8115C18.7367 12.8115 16.9458 14.6024 16.9458 16.8115C16.9458 19.0207 18.7367 20.8115 20.9458 20.8115Z" fill="#E5E5E5"/>
<path fill-rule="evenodd" clip-rule="evenodd" d="M13.9458 27.8115C13.9458 25.0501 16.1844 22.8115 18.9458 22.8115H22.9458C25.7072 22.8115 27.9458 25.0501 27.9458 27.8115C27.9458 28.3638 27.4981 28.8115 26.9458 28.8115C26.3935 28.8115 25.9458 28.3638 25.9458 27.8115C25.9458 26.1547 24.6027 24.8115 22.9458 24.8115H18.9458C17.2889 24.8115 15.9458 26.1547 15.9458 27.8115C15.9458 28.3638 15.4981 28.8115 14.9458 28.8115C14.3935 28.8115 13.9458 28.3638 13.9458 27.8115Z" fill="#E5E5E5"/>
</svg>
